<svg height="512" viewBox="0 0 64 64" width="512" xmlns="http://www.w3.org/2000/svg"><path d="m57 8h-6v-4h2v-2h-6v2h2v4h-10v-4h2v-2h-6v2h2v4h-10v-4h2v-2h-6v2h2v4h-10v-4h2v-2h-6v2h2v4h-6a5.006 5.006 0 0 0 -5 5v34a5.006 5.006 0 0 0 5 5h12v3a1 1 0 0 0 1 1h6v5a1 1 0 0 0 1 1h10a1 1 0 0 0 1-1v-5h6a1 1 0 0 0 1-1v-3h12a5.006 5.006 0 0 0 5-5v-34a5.006 5.006 0 0 0 -5-5zm-21 52h-8v-4h8zm7-6h-22v-2h22zm17-7a3 3 0 0 1 -3 3h-50a3 3 0 0 1 -3-3v-34a3 3 0 0 1 3-3h50a3 3 0 0 1 3 3z"/><path d="m57 12h-50a1 1 0 0 0 -1 1v34a1 1 0 0 0 1 1h50a1 1 0 0 0 1-1v-34a1 1 0 0 0 -1-1zm-1 34h-48v-32h48z"/><path d="m23 36.414v6.586a1 1 0 0 0 1 1h10a1 1 0 0 0 1-1v-6.586l2.707-2.707a1 1 0 0 0 .293-.707v-14a3 3 0 0 0 -6 0v3.184a2.908 2.908 0 0 0 -3 .6 2.908 2.908 0 0 0 -3-.6v-3.184a3 3 0 0 0 -6 0v14a1 1 0 0 0 .293.707zm13-3.828-2.707 2.707a1 1 0 0 0 -.293.707v6h-8v-6a1 1 0 0 0 -.293-.707l-2.707-2.707v-4.586h2v1a2.987 2.987 0 0 0 5 2.22 2.987 2.987 0 0 0 5-2.22v-1h2zm-2-13.586a1 1 0 0 1 2 0v7h-2zm-3 5a1 1 0 0 1 1 1v4a1 1 0 0 1 -2 0v-4a1 1 0 0 1 1-1zm-4 0a1 1 0 0 1 1 1v4a1 1 0 0 1 -2 0v-4a1 1 0 0 1 1-1zm-5-5a1 1 0 0 1 2 0v7h-2z"/><path d="m10 16h6v2h-6z"/><path d="m10 20h8v2h-8z"/><path d="m10 24h8v2h-8z"/><path d="m48 41h6v-6h-6zm2-4h2v2h-2z"/><path d="m46 35h-6v6h6zm-2 4h-2v-2h2z"/><path d="m42.893 27.307-.863 3.45a1 1 0 0 0 1.434 1.129l3.517-1.842 3.559 1.844a1 1 0 0 0 1.43-1.131l-.863-3.45 2.6-2.6a1 1 0 0 0 -.465-1.677l-3.554-.888-1.788-3.589a1.042 1.042 0 0 0 -1.79 0l-1.793 3.589-3.554.888a1 1 0 0 0 -.465 1.677zm2.349-3.337a1 1 0 0 0 .653-.523l1.105-2.211 1.1 2.211a1 1 0 0 0 .653.523l2.286.572-1.751 1.751a1 1 0 0 0 -.263.95l.462 1.849-2.053-1.063a1 1 0 0 0 -.923 0l-2 1.049.459-1.837a1 1 0 0 0 -.263-.95l-1.751-1.751z"/><path d="m51 16h2v2h-2z"/><path d="m41 18h2v2h-2z"/><path d="m17.875 33.515a1 1 0 0 0 -.875-.515h-4.132l2.964-4.445-1.664-1.11-4 6a1 1 0 0 0 .832 1.555h4.2l-4.043 6.47 1.7 1.06 5-8a1 1 0 0 0 .018-1.015z"/><path d="m19 38h2v2h-2z"/><path d="m16 42h2v2h-2z"/></svg>